<svg width="30" height="23" viewBox="0 0 30 23" fill="none" xmlns="http://www.w3.org/2000/svg">
<path d="M0 0H30V22.5H0V0Z" fill="#ED0202"/>
<path d="M3.59998 8.325L5.62496 2.25L7.64994 8.325L2.25 4.6125H8.99992L3.59998 8.325Z" fill="#FFDE00"/>
<path d="M12.3828 2.36615L10.2988 2.82797L11.6889 1.20813L11.5526 3.38822L10.3961 1.45818L12.3828 2.36615Z" fill="#FFDE00"/>
<path d="M14.4867 5.03253L12.3867 4.64995L14.2962 3.69603L13.325 5.65261L13.0076 3.42511L14.4867 5.03253Z" fill="#FFDE00"/>
<path d="M14.1793 8.77066L12.418 7.56487L14.5505 7.47269L12.8658 8.86304L13.4845 6.69977L14.1793 8.77066Z" fill="#FFDE00"/>
<path d="M11.5305 11.2151L10.3716 9.42257L12.3742 10.1612L10.2832 10.7929L11.6894 9.0365L11.5305 11.2151Z" fill="#FFDE00"/>
</svg>
