<svg width="29" height="19" viewBox="0 0 29 19" fill="none" xmlns="http://www.w3.org/2000/svg">
<path d="M14.964 6.60005C14.8383 6.60392 14.7175 6.65612 14.6286 6.74698L12.0785 9.28932L10.5077 7.72332C10.0678 7.26512 9.35733 7.97272 9.8165 8.41158L11.7334 10.3237C11.9238 10.5141 12.2332 10.5141 12.4246 10.3237L15.3197 7.43622C15.6387 7.12688 15.4038 6.60005 14.965 6.60005H14.964ZM0.483333 10.4667H3.38333C3.6511 10.4667 3.86667 10.6823 3.86667 10.95C3.86667 11.2178 3.6511 11.4334 3.38333 11.4334H0.483333C0.215567 11.4334 0 11.2178 0 10.95C0 10.6823 0.215567 10.4667 0.483333 10.4667ZM0.483333 6.60005H3.38333C3.6511 6.60005 3.86667 6.81562 3.86667 7.08338C3.86667 7.35115 3.6511 7.56672 3.38333 7.56672H0.483333C0.215567 7.56672 0 7.35115 0 7.08338C0 6.81562 0.215567 6.60005 0.483333 6.60005ZM0.483333 2.73338H3.38333C3.6511 2.73338 3.86667 2.94895 3.86667 3.21672C3.86667 3.48448 3.6511 3.70005 3.38333 3.70005H0.483333C0.215567 3.70005 0 3.48448 0 3.21672C0 2.94895 0.215567 2.73338 0.483333 2.73338ZM23.6833 13.3667C22.3542 13.3667 21.2667 14.4542 21.2667 15.7834C21.2667 17.1126 22.3542 18.2001 23.6833 18.2001C25.0125 18.2001 26.1 17.1126 26.1 15.7834C26.1 14.4542 25.0125 13.3667 23.6833 13.3667ZM23.6833 14.3334C24.4895 14.3334 25.1333 14.9772 25.1333 15.7834C25.1333 16.5896 24.4895 17.2334 23.6833 17.2334C22.8771 17.2334 22.2333 16.5896 22.2333 15.7834C22.2333 14.9772 22.8771 14.3334 23.6833 14.3334ZM11.1167 13.3667C9.7875 13.3667 8.7 14.4542 8.7 15.7834C8.7 17.1126 9.7875 18.2001 11.1167 18.2001C12.4458 18.2001 13.5333 17.1126 13.5333 15.7834C13.5333 14.4542 12.4458 13.3667 11.1167 13.3667ZM11.1167 14.3334C11.9229 14.3334 12.5667 14.9772 12.5667 15.7834C12.5667 16.5896 11.9229 17.2334 11.1167 17.2334C10.3105 17.2334 9.66667 16.5896 9.66667 15.7834C9.66667 14.9772 10.3105 14.3334 11.1167 14.3334ZM6.28333 0.800049C5.48873 0.800049 4.83333 1.45545 4.83333 2.25005V12.8834C4.83333 13.678 5.48873 14.3334 6.28333 14.3334H8.21667C8.87013 14.3431 8.87013 13.357 8.21667 13.3667H6.28333C6.00687 13.3667 5.8 13.1599 5.8 12.8834V2.25005C5.8 1.97358 6.00687 1.76672 6.28333 1.76672H18.85C19.1265 1.76672 19.3333 1.97358 19.3333 2.25005V13.3667H14.0167C13.3787 13.3667 13.3903 14.3431 14.0167 14.3334H20.7833C21.4213 14.3334 21.4155 13.3667 20.7833 13.3667H20.3V4.66672H24.3861L28.0333 10.3662V12.8834C28.0333 13.1599 27.8265 13.3667 27.55 13.3667H26.5833C25.9511 13.3667 25.9511 14.3334 26.5833 14.3334H27.55C28.3446 14.3334 29 13.678 29 12.8834V10.225C29 10.1332 28.9739 10.0414 28.9246 9.96405L25.0579 3.92238C24.969 3.78415 24.8163 3.70005 24.65 3.70005H20.3V2.25005C20.3 1.45545 19.6446 0.800049 18.85 0.800049H6.28333Z" fill="#195CDF"/>
</svg>
