<svg width="91" height="91" viewBox="0 0 91 91" fill="none" xmlns="http://www.w3.org/2000/svg">
<path d="M73.3438 0.640625H17.6562C8.27445 0.640625 0.640625 8.27445 0.640625 17.6562V43.9531H20.75V53.2344H70.25V43.9531H90.3594V17.6562C90.3594 8.27445 82.7255 0.640625 73.3438 0.640625ZM67.1562 50.1406H23.8438V43.9531H67.1562V50.1406ZM87.2656 40.8594H3.73438V17.6562C3.73438 9.97911 9.98066 3.73438 17.6562 3.73438H73.3438C81.0193 3.73438 87.2656 9.97911 87.2656 17.6562V40.8594Z" fill="#195CDF"/>
<path d="M76.4375 28.4844H14.5625V31.5781H76.4375V28.4844Z" fill="#195CDF"/>
<path d="M28.7597 72.4048V72.3507C26.0496 72.3507 23.8438 70.1448 23.8438 67.4347C23.8438 64.723 26.0496 62.5156 28.7597 62.5156V59.4219C24.3434 59.4219 20.75 63.0153 20.75 67.4347C20.75 71.5153 23.8159 74.8906 27.7651 75.3825V75.4444C31.0243 75.4444 33.6757 78.0973 33.6757 81.3566C33.6757 84.6143 31.0243 87.2656 27.7651 87.2656V90.3594C32.7305 90.3594 36.7694 86.3205 36.7694 81.3566C36.7694 76.7268 33.2596 72.9013 28.7597 72.4048Z" fill="#195CDF"/>
<path d="M62.2402 72.4048V72.3507C59.5301 72.3507 57.3242 70.1448 57.3242 67.4347C57.3242 64.723 59.5301 62.5156 62.2402 62.5156V59.4219C57.8239 59.4219 54.2305 63.0153 54.2305 67.4347C54.2305 71.5153 57.2964 74.8922 61.2471 75.3825V75.4444C64.5048 75.4444 67.1562 78.0973 67.1562 81.3566C67.1562 84.6143 64.5048 87.2656 61.2471 87.2656V90.3594C66.211 90.3594 70.2499 86.3205 70.2499 81.3566C70.2499 76.7268 66.7385 72.9013 62.2402 72.4048Z" fill="#195CDF"/>
<path d="M45.4995 72.4048V72.3507C42.7879 72.3507 40.582 70.1448 40.582 67.4347C40.582 64.723 42.7879 62.5156 45.4995 62.5156V59.4219C41.0832 59.4219 37.4883 63.0153 37.4883 67.4347C37.4883 71.5153 40.5542 74.8906 44.5049 75.3825V75.4444C47.7642 75.4444 50.4171 78.0973 50.4171 81.3566C50.4171 84.6143 47.7657 87.2656 44.5049 87.2656V90.3594C49.4704 90.3594 53.5108 86.3205 53.5108 81.3566C53.5108 76.7268 49.9994 72.9013 45.4995 72.4048Z" fill="#195CDF"/>
<path d="M65.6094 22.2969H77.9844V9.92188H65.6094V22.2969ZM68.7031 13.0156H74.8906V19.2031H68.7031V13.0156Z" fill="#195CDF"/>
<path d="M54.7812 13.7891H14.5625V15.3359H54.7812V13.7891Z" fill="#195CDF"/>
<path d="M54.7812 19.9766H14.5625V21.5234H54.7812V19.9766Z" fill="#195CDF"/>
</svg>
