<svg width="26" height="34" viewBox="0 0 26 34" fill="none" xmlns="http://www.w3.org/2000/svg">
<path d="M13 33.3401C12.6463 33.3401 12.381 33.1633 12.1156 32.9864C11.585 32.4558 0 19.898 0 13C0 5.83674 5.83674 0 13 0C20.1633 0 26 5.83674 26 13C26 19.898 14.415 32.4558 13.8844 32.9864C13.619 33.2517 13.3537 33.3401 13 33.3401ZM13 2.29932C7.16327 2.29932 2.38776 7.07483 2.38776 12.9116C2.38776 17.5102 9.46259 26.3537 13 30.4217C16.6258 26.3537 23.6122 17.5102 23.6122 12.9116C23.7007 7.07483 18.9252 2.29932 13 2.29932Z" fill="#195CDF"/>
<path d="M13.0003 18.2177C9.81667 18.2177 7.16357 15.5646 7.16357 12.381C7.16357 9.19728 9.81667 6.54422 13.0003 6.54422C16.184 6.54422 18.837 9.19728 18.837 12.381C18.837 15.6531 16.2724 18.2177 13.0003 18.2177ZM13.0003 8.93198C11.0548 8.93198 9.46292 10.5238 9.46292 12.4694C9.46292 14.415 11.0548 16.0068 13.0003 16.0068C14.9459 16.0068 16.5377 14.415 16.5377 12.4694C16.5377 10.4354 14.9459 8.93198 13.0003 8.93198Z" fill="#195CDF"/>
</svg>
