<svg width="25" height="19" viewBox="0 0 25 19" fill="none" xmlns="http://www.w3.org/2000/svg">
<path d="M21.3816 0H3.61842C1.64474 0 0 1.59396 0 3.50671V15.4933C0 17.406 1.64474 19 3.61842 19H21.3816C23.3553 19 25 17.406 25 15.4933V3.44295C25 1.5302 23.4211 0 21.3816 0ZM21.3816 1.6577C21.5132 1.6577 21.6447 1.65771 21.8421 1.72147L14.3421 9.9463C13.8816 10.4564 13.2237 10.7114 12.5 10.7114C11.7763 10.7114 11.1184 10.3926 10.6579 9.9463L3.15789 1.72147C3.28947 1.72147 3.42105 1.6577 3.61842 1.6577H21.3816ZM23.2894 15.4933C23.2894 16.5134 22.4342 17.3423 21.3816 17.3423H3.61842C2.56579 17.3423 1.71051 16.5134 1.71051 15.4933V3.44295C1.71051 3.18792 1.77631 2.93288 1.8421 2.7416L9.34211 11.0302C10.1316 11.9228 11.25 12.3691 12.4342 12.3691C13.6184 12.3691 14.7368 11.8591 15.5263 11.0302L23.0263 2.7416C23.0921 2.93288 23.1579 3.18792 23.1579 3.44295V15.4933H23.2894Z" fill="#195CDF"/>
</svg>
