<svg width="99" height="89" viewBox="0 0 99 89" fill="none" xmlns="http://www.w3.org/2000/svg">
<path d="M98.1989 39.0658L76.8004 23.5967C76.212 23.1711 75.4343 23.1116 74.7875 23.4418C74.1409 23.7725 73.7339 24.4374 73.7339 25.1637V36.849L55.4021 23.5967C54.8137 23.1711 54.0362 23.1116 53.3896 23.4418C52.7426 23.7725 52.336 24.4374 52.336 25.1637V36.849L34.0038 23.5967C33.4154 23.1711 32.6379 23.1116 31.9909 23.4418C31.3443 23.7725 30.9373 24.4374 30.9373 25.1637V38.699H26.9413L24.3989 1.8281C24.3287 0.814123 23.486 0.0273438 22.4697 0.0273438H12.335C11.3187 0.0273438 10.4762 0.81393 10.4058 1.8281L7.86315 38.6992H1.93359C0.86567 38.6992 0 39.5649 0 40.6328V87.0391C0 88.1068 0.86567 88.9727 1.93359 88.9727H97.0664C98.1341 88.9727 99 88.1068 99 87.0391V40.6328C99 40.0119 98.702 39.4291 98.1989 39.0658ZM12.0065 34.8318H16.1327C17.2003 34.8318 18.0663 33.966 18.0663 32.8982C18.0663 31.8303 17.2003 30.9646 16.1327 30.9646H12.2731L14.1398 3.89472H20.6649L23.0649 38.699H11.7398L12.0065 34.8318ZM30.9371 46.4338H20.1691C19.1016 46.4338 18.2355 47.2997 18.2355 48.3674C18.2355 49.4351 19.1016 50.301 20.1691 50.301H30.9371V54.168H20.1691C19.1016 54.168 18.2355 55.0338 18.2355 56.1016C18.2355 57.1695 19.1016 58.0352 20.1691 58.0352H30.9371V61.9023H25.7696C24.702 61.9023 23.836 62.7682 23.836 63.8359C23.836 64.9039 24.702 65.7695 25.7696 65.7695H30.9371V69.6365H20.1691C19.1016 69.6365 18.2355 70.5024 18.2355 71.5701C18.2355 72.6378 19.1016 73.5037 20.1691 73.5037H30.9371V77.3705H20.1691C19.1016 77.3705 18.2355 78.2364 18.2355 79.3041C18.2355 80.372 19.1016 81.2377 20.1691 81.2377H30.9371V85.1053H3.86719V42.5662H9.66081C9.66313 42.5662 9.66565 42.5666 9.66797 42.5666H25.1363C25.1379 42.5668 25.1394 42.5668 25.1402 42.5666C25.1429 42.5666 25.145 42.5662 25.1477 42.5662H30.9371V46.4338ZM95.1328 85.1053H34.8043V40.6326V28.9473L53.1365 42.1996C53.7249 42.6252 54.5024 42.6853 55.1494 42.3543C55.796 42.0238 56.203 41.3589 56.203 40.6326V28.9473L74.5348 42.1994C75.1232 42.6252 75.9007 42.6847 76.5473 42.3543C77.1943 42.0238 77.6009 41.3589 77.6009 40.6326V28.9473L95.1328 41.6207V85.1053Z" fill="#195CDF"/>
<path d="M20.1699 65.7695H20.2156C21.2835 65.7695 22.1491 64.9039 22.1491 63.8359C22.1491 62.7682 21.2835 61.9023 20.2156 61.9023H20.1699C19.1024 61.9023 18.2363 62.7682 18.2363 63.8359C18.2363 64.9037 19.1022 65.7695 20.1699 65.7695Z" fill="#195CDF"/>
<path d="M57.2348 54.1676H49.5C48.4321 54.1676 47.5664 55.0335 47.5664 56.1012V63.8352C47.5664 64.9029 48.4321 65.7688 49.5 65.7688H57.2348C58.3025 65.7688 59.1684 64.9029 59.1684 63.8352V56.1012C59.1684 55.0337 58.3025 54.1676 57.2348 54.1676ZM55.3012 61.9016H51.4336V58.0348H55.3012V61.9016Z" fill="#195CDF"/>
<path d="M70.7695 56.1012V63.8352C70.7695 64.9029 71.6356 65.7688 72.7031 65.7688H80.4379C81.5058 65.7688 82.3715 64.9029 82.3715 63.8352V56.1012C82.3715 55.0335 81.5058 54.1676 80.4379 54.1676H72.7031C71.6356 54.1676 70.7695 55.0337 70.7695 56.1012ZM74.6367 58.0348H78.5043V61.9016H74.6367V58.0348Z" fill="#195CDF"/>
<path d="M62.2019 77.3705H62.1562C61.0887 77.3705 60.2227 78.2363 60.2227 79.3041C60.2227 80.372 61.0887 81.2377 62.1562 81.2377H62.2019C63.2698 81.2377 64.1355 80.372 64.1355 79.3041C64.1355 78.2363 63.2698 77.3705 62.2019 77.3705Z" fill="#195CDF"/>
<path d="M56.6011 77.3705H49.5C48.4321 77.3705 47.5664 78.2363 47.5664 79.3041C47.5664 80.372 48.4321 81.2377 49.5 81.2377H56.6011C57.6687 81.2377 58.5347 80.372 58.5347 79.3041C58.5347 78.2363 57.6687 77.3705 56.6011 77.3705Z" fill="#195CDF"/>
</svg>
