<svg width="18" height="19" viewBox="0 0 18 19" fill="none" xmlns="http://www.w3.org/2000/svg">
<path d="M9.16455 5.08154C9.02067 5.08154 8.88737 5.06038 8.76465 5.01807C8.64616 4.97152 8.54248 4.90592 8.45361 4.82129C8.26742 4.64355 8.17432 4.40446 8.17432 4.104C8.17432 3.81624 8.28434 3.57292 8.50439 3.37402C8.71598 3.17513 8.96989 3.07568 9.26611 3.07568C9.56234 3.07568 9.79932 3.16455 9.97705 3.34229C10.1548 3.52002 10.2437 3.76123 10.2437 4.06592C10.2437 4.35368 10.1379 4.59701 9.92627 4.7959C9.71891 4.98633 9.46501 5.08154 9.16455 5.08154ZM8.77734 14C8.12565 14 7.7998 13.8519 7.7998 13.5557C7.7998 13.4033 7.83366 13.2848 7.90137 13.2002C8.00293 13.234 8.09603 13.251 8.18066 13.251C8.57422 13.251 8.76676 13.0013 8.7583 12.502V8.24902C8.7583 7.9528 8.71598 7.74756 8.63135 7.6333C8.55094 7.51481 8.40495 7.45557 8.19336 7.45557C8.03678 7.45557 7.89502 7.47461 7.76807 7.5127C7.69189 7.52116 7.63688 7.46191 7.60303 7.33496C7.5734 7.2207 7.59033 7.12126 7.65381 7.03662C7.71729 6.94775 7.81462 6.85677 7.9458 6.76367C8.08122 6.66634 8.22933 6.58171 8.39014 6.50977C8.73714 6.34473 9.02702 6.26221 9.25977 6.26221C9.49251 6.26221 9.6639 6.29606 9.77393 6.36377C9.88818 6.43148 9.97493 6.52246 10.0342 6.63672C10.1273 6.82292 10.1738 7.12337 10.1738 7.53809V12.6099C10.1865 12.9442 10.3071 13.1473 10.5356 13.2192C10.5991 13.2404 10.6774 13.2594 10.7705 13.2764C10.8636 13.2933 10.9461 13.3145 11.0181 13.3398C11.0942 13.361 11.1535 13.3864 11.1958 13.416C11.2677 13.471 11.3037 13.5599 11.3037 13.6826C11.3037 13.835 11.272 13.9513 11.2085 14.0317C11.1196 14.0106 10.9842 14 10.8022 14H8.77734Z" fill="#515151"/>
<circle cx="8.97222" cy="8.97222" r="8.47222" stroke="#515151"/>
</svg>
