<svg width="94" height="94" viewBox="0 0 94 94" fill="none" xmlns="http://www.w3.org/2000/svg">
<path d="M94 41.125C94 36.3858 88.7693 32.3399 78.7426 29.3907C74.1543 28.3704 71.297 26.8938 70.2513 25.0001C69.1076 22.9301 70.1181 20.1082 71.0934 17.3763C71.7945 15.4101 72.4583 13.5556 72.4583 11.75C72.4583 5.26988 67.1885 0 60.7083 0C54.2282 0 48.9583 5.26988 48.9583 11.75C48.9583 13.162 49.6751 14.8442 50.5054 16.7908C51.5551 19.2543 52.9945 22.6266 52.0388 24.0738C51.4474 24.9648 49.6594 25.4583 47 25.4583C24.2148 25.4583 0 30.9475 0 41.125C0 53.8268 12.1848 81.5352 18.1988 87.5512C21.3125 90.665 33.6305 94 47 94C60.7632 94 73.5237 91.0351 76.046 87.2535C78.2413 83.9596 84.5726 72.1078 89.0924 60.4518C89.1316 60.4283 89.1747 60.4028 89.2119 60.3793L89.157 60.2951C91.9222 53.1355 94 46.0659 94 41.125ZM72.7873 85.0798C71.7886 86.576 61.8109 90.0833 47 90.0833C32.4378 90.0833 22.4778 86.2881 20.9679 84.7821C17.9677 81.78 13.162 72.523 9.41371 62.8351C15.7705 65.5885 27.1895 68.5417 47 68.5417C65.9645 68.5417 77.2269 65.8372 83.7325 63.1876C79.665 72.848 74.7848 82.0816 72.7873 85.0798ZM85.8788 57.8315C80.9928 60.6515 70.0339 64.625 47 64.625C22.8479 64.625 11.9693 60.254 7.45538 57.4301C6.39004 54.2713 5.499 51.1869 4.87625 48.3728C13.0875 53.8816 30.4168 56.7917 47 56.7917C63.4402 56.7917 80.6207 53.9305 88.9162 48.5177C88.1681 51.3984 87.1086 54.5768 85.8788 57.8315ZM47 52.875C20.3079 52.875 3.91667 46.0326 3.91667 41.125C3.91667 36.2174 20.3079 29.375 47 29.375C51.1928 29.375 53.909 28.3469 55.3053 26.2338C57.4222 23.032 55.5853 18.7178 54.1087 15.2535C53.5585 13.9649 52.875 12.363 52.875 11.75C52.875 7.43188 56.3883 3.91667 60.7083 3.91667C65.0284 3.91667 68.5417 7.43188 68.5417 11.75C68.5417 12.8741 67.9894 14.4231 67.4039 16.0603C66.2543 19.2739 64.8267 23.2748 66.8223 26.8918C68.4575 29.8528 72.0804 31.9208 77.7654 33.18C86.8482 35.8551 90.0833 39.0374 90.0833 41.125C90.0833 46.0326 73.694 52.875 47 52.875ZM47 31.3333C32.4535 31.3333 7.83333 33.3955 7.83333 41.125C7.83333 48.8545 32.4515 50.9167 47 50.9167C61.5485 50.9167 86.1667 48.8545 86.1667 41.125C86.1667 33.3955 61.5485 31.3333 47 31.3333ZM47 47C25.2116 47 12.4668 43.1323 11.7422 41.1857C12.4668 39.1177 25.2116 35.25 47 35.25C68.7884 35.25 81.5333 39.1177 82.2578 41.0604C81.5333 43.1323 68.7884 47 47 47ZM56.7917 11.75C56.7917 9.588 58.5483 7.83333 60.7083 7.83333C62.8684 7.83333 64.625 9.588 64.625 11.75C64.625 13.912 62.8684 15.6667 60.7083 15.6667C58.5483 15.6667 56.7917 13.912 56.7917 11.75Z" fill="#195CDF"/>
</svg>
