<svg width="96" height="96" viewBox="0 0 96 96" fill="none" xmlns="http://www.w3.org/2000/svg">
<path fill-rule="evenodd" clip-rule="evenodd" d="M44.8495 53.0326L45.3839 52.4982L85.04 12.8421C86.2183 11.6638 88.1193 11.6623 89.2909 12.8339C90.4706 14.0136 90.4623 15.9051 89.2905 17.0769L46.9712 59.3962C45.7796 60.5878 43.8997 60.5681 42.7282 59.3966C42.7199 59.3883 42.7116 59.3799 42.7034 59.3715C42.6951 59.3634 42.6867 59.3551 42.6785 59.3469L32.1205 48.7889C30.9485 47.6169 30.95 45.7189 32.1216 44.5473C33.3013 43.3676 35.1922 43.3753 36.3632 44.5463L44.8495 53.0326Z" fill="#195CDF"/>
<path d="M40.4923 0.59075C14.309 4.73778 -3.55491 29.3254 0.592119 55.5086C4.73914 81.6919 29.3267 99.5559 55.51 95.4088C77.0053 92.0043 93.3615 74.6235 95.7188 53.302C96.1866 49.0709 96.0883 44.7722 95.4102 40.4909C95.151 38.8545 93.6143 37.738 91.9778 37.9972C90.3414 38.2564 89.2249 39.7931 89.4841 41.4295C90.0782 45.181 90.1643 48.9423 89.7551 52.6426C87.6931 71.2936 73.3795 86.5038 54.5714 89.4827C31.661 93.1113 10.1469 77.4804 6.51825 54.57C2.8896 31.6597 18.5205 10.1455 41.4309 6.51688C49.8647 5.1811 58.3138 6.42494 65.8697 9.98549C67.3684 10.6918 69.156 10.0493 69.8623 8.55051C70.5685 7.05173 69.9261 5.26418 68.4273 4.55791C59.7908 0.488164 50.1246 -0.934861 40.4923 0.59075Z" fill="#EFF4FF"/>
</svg>
