<svg width="26" height="26" viewBox="0 0 26 26" fill="none" xmlns="http://www.w3.org/2000/svg">
<path d="M19.0542 26C18.0425 25.9925 17.0353 25.8655 16.0535 25.6217C12.6628 24.8036 9.17127 22.7283 6.22361 19.7781C3.27594 16.8278 1.19809 13.3356 0.380013 9.94822C-0.481394 6.3849 0.132973 3.33635 2.108 1.36132L2.67192 0.797397C3.18357 0.286777 3.87689 0 4.59974 0C5.32259 0 6.01591 0.286777 6.52756 0.797397L9.76818 4.03737C10.2791 4.54885 10.5661 5.24223 10.5661 5.96519C10.5661 6.68814 10.2791 7.38153 9.76818 7.89301L7.85394 9.8066C8.77161 11.4169 10.0197 13.0285 11.4949 14.5036C12.97 15.9787 14.5829 17.2275 16.1925 18.1452L18.1061 16.2309C18.3592 15.9777 18.6598 15.7768 18.9905 15.6398C19.3213 15.5027 19.6759 15.4322 20.0339 15.4322C20.392 15.4322 20.7465 15.5027 21.0773 15.6398C21.4081 15.7768 21.7086 15.9777 21.9617 16.2309L25.2017 19.4709C25.7128 19.9822 25.9998 20.6755 25.9998 21.3984C25.9998 22.1213 25.7128 22.8146 25.2017 23.3259L24.6371 23.8898C23.2448 25.2847 21.3176 26 19.0542 26ZM4.59974 1.93883C4.49648 1.93831 4.39417 1.95841 4.29878 1.99794C4.20339 2.03748 4.11685 2.09565 4.04422 2.16905L3.47965 2.73297C2.00065 4.21198 1.56865 6.61318 2.26321 9.49036C2.99851 12.5383 4.8914 15.7052 7.59267 18.4058C10.2939 21.1064 13.4602 22.9974 16.5087 23.7353C19.3866 24.4298 21.7865 23.9978 23.2655 22.5188L23.8294 21.9549C23.9767 21.8074 24.0595 21.6075 24.0595 21.399C24.0595 21.1906 23.9767 20.9907 23.8294 20.8432L20.5901 17.6032C20.4426 17.4559 20.2427 17.3731 20.0342 17.3731C19.8258 17.3731 19.6259 17.4559 19.4784 17.6032L17.0526 20.029C16.9071 20.1746 16.719 20.2702 16.5155 20.3018C16.312 20.3334 16.1038 20.2995 15.9209 20.2049C13.9323 19.1767 11.9275 17.6795 10.1232 15.8752C8.31892 14.0709 6.82504 12.0675 5.7942 10.0789C5.69953 9.89603 5.66549 9.68783 5.697 9.48437C5.7285 9.28091 5.82392 9.09276 5.96945 8.94713L8.39588 6.52135C8.54322 6.37389 8.62598 6.17397 8.62598 5.96551C8.62598 5.75706 8.54322 5.55713 8.39588 5.40967L5.1559 2.16905C5.08305 2.09577 4.99638 2.03769 4.90091 1.99817C4.80543 1.95865 4.70307 1.93848 4.59974 1.93883Z" fill="#195CDF"/>
</svg>
