<svg width="93" height="99" viewBox="0 0 93 99" fill="none" xmlns="http://www.w3.org/2000/svg">
<path d="M22.3667 94.3317C13.277 94.3317 5.90999 86.9604 5.90999 77.8751C5.90999 72.4169 8.58851 67.6155 12.6754 64.6245C12.7048 64.5957 12.7079 64.573 12.742 64.5457C14.8227 62.7655 15.0102 59.1526 15.0102 59.1526V10.3103C15.0102 7.64314 17.174 5.48233 19.8396 5.48233H24.2663C26.9342 5.48233 29.0949 7.6447 29.0949 10.3103V59.2872C29.1615 60.3285 29.5877 62.3933 31.8014 64.4095C31.8665 64.4685 31.9051 64.5155 31.9627 64.5714C36.0995 67.5593 38.8212 72.385 38.8212 77.8766C38.821 86.9604 31.4554 94.3317 22.3667 94.3317ZM35.7059 60.4014C35.6733 60.3696 35.6733 60.3348 35.6294 60.303C34.3026 59.1465 34.2254 56.97 34.2254 56.97V8.95407C34.2254 1.55749 29.7441 0.201262 27.3715 0H16.2967C15.0473 0.0340885 9.87951 0.588844 9.87951 7.44421V56.8534C9.87951 56.8534 9.89772 59.1087 8.65046 60.1623C8.60656 60.1956 8.61948 60.2199 8.58991 60.2576C3.56908 64.2341 0.322266 70.3613 0.322266 77.2666C0.322266 89.2684 10.0498 98.9998 22.0532 98.9998C34.0565 98.9998 43.7842 89.2715 43.7842 77.2666C43.7828 70.4461 40.6191 64.3855 35.7059 60.4014Z" fill="#195CDF"/>
<path d="M28.3659 69.5773C28.3613 69.5728 28.3584 69.5697 28.3537 69.5653C24.9282 66.4986 24.6368 63.2048 24.6164 62.4237V51.9128C24.6164 49.6908 23.0989 49.5084 22.6849 49.4964H21.5603C21.5603 49.4964 19.4843 49.4593 19.4843 52.0597V62.0514C19.3995 63.7225 18.8151 67.0859 15.6418 69.635C15.6449 69.638 15.6449 69.641 15.65 69.6441C13.129 71.5574 11.4883 74.5573 11.4883 77.9724C11.4883 83.8061 16.2169 88.5317 22.05 88.5317C27.8822 88.5317 32.6131 83.8029 32.6131 77.9724C32.6162 74.5179 30.9376 71.4906 28.3659 69.5773Z" fill="#195CDF"/>
<path d="M71.2538 94.3317C62.1704 94.3317 54.8018 86.9604 54.8018 77.8751C54.8018 72.4169 57.4809 67.6155 61.5664 64.6245C61.5952 64.5957 61.5982 64.573 61.6346 64.5457C63.7143 62.7655 63.9081 59.1526 63.9081 59.1526V10.3103C63.9081 7.64314 66.0666 5.48233 68.7322 5.48233H73.1565C75.8298 5.48233 77.9851 7.6447 77.9851 10.3103V59.2872C78.0517 60.3285 78.4801 62.3933 80.6916 64.4095C80.7583 64.4685 80.793 64.5155 80.8535 64.5714C84.9919 67.5593 87.7134 72.385 87.7134 77.8766C87.7136 86.9604 80.348 94.3317 71.2538 94.3317ZM84.6 60.4014C84.5667 60.3696 84.5667 60.3348 84.5243 60.303C83.1983 59.1465 83.1166 56.97 83.1166 56.97V8.95407C83.1166 1.55749 78.6362 0.201262 76.2657 0H65.1887C63.9385 0.0340885 58.7736 0.5904 58.7736 7.44655V56.8534C58.7736 56.8534 58.7889 59.1087 57.5416 60.1623C57.4993 60.1986 57.5144 60.2229 57.4809 60.2576C52.4585 64.237 49.2148 70.3613 49.2148 77.2697C49.2148 89.2701 58.9433 98.9998 70.9437 98.9998C82.9471 98.9998 92.677 89.2731 92.677 77.2697C92.6768 70.4461 89.5133 64.3855 84.6 60.4014Z" fill="#195CDF"/>
<path d="M77.2608 69.5773C77.2548 69.5728 77.2517 69.5697 77.2456 69.5653C73.8218 66.4986 73.5326 63.2048 73.5099 62.4237V53.8231V51.9142V27.5761C73.5099 25.6136 72.0749 25.369 71.4966 25.3472H70.3175C69.8256 25.3592 68.3422 25.5855 68.3422 27.9151V53.8202H68.3771V62.0514C68.2924 63.7225 67.7051 67.0859 64.5385 69.635C64.5385 69.638 64.5385 69.641 64.5385 69.6441C62.0197 71.5574 60.3789 74.5573 60.3789 77.9724C60.3789 83.8061 65.1105 88.5318 70.9412 88.5318C76.778 88.5318 81.5051 83.8029 81.5051 77.9724C81.5082 74.518 79.831 71.4906 77.2608 69.5773Z" fill="#195CDF"/>
</svg>
