<svg width="21" height="23" viewBox="0 0 21 23" fill="none" xmlns="http://www.w3.org/2000/svg">
<path d="M18.6312 2.24455C18.0813 1.7184 15.8577 0.0402727 10.9028 0.0163125C10.9028 0.0163125 5.06133 -0.347873 2.21577 2.36531C0.629675 4.01373 0.0723739 6.41831 0.0133221 9.41038C-0.0466529 12.3948 -0.122313 17.9917 5.07517 19.5117H5.07978L5.07517 21.8272C5.07517 21.8272 5.04379 22.7654 5.63708 22.9562C6.35585 23.1862 6.77752 22.4731 7.464 21.7074C7.84137 21.2866 8.36085 20.6647 8.75299 20.1912C12.3062 20.4998 15.0392 19.7925 15.3493 19.6881C16.0662 19.4446 20.1251 18.906 20.7866 13.3072C21.4676 7.53674 20.4572 3.88626 18.6294 2.24072V2.24455H18.6312ZM19.2328 12.8941C18.6654 17.5672 15.3723 17.8652 14.7763 18.0655C14.5133 18.1537 12.1051 18.7728 9.08884 18.5687C9.08884 18.5687 6.83288 21.3873 6.14087 22.1195C6.02922 22.2354 5.89082 22.2786 5.80778 22.2584C5.68322 22.2306 5.65646 22.0859 5.65646 21.8713L5.6703 18.032C5.65646 18.032 5.6703 18.032 5.6703 18.032C1.26817 16.7516 1.53206 11.9932 1.58742 9.49279C1.62802 7.00483 2.08382 4.96348 3.42725 3.58245C5.83638 1.31012 10.806 1.65418 10.806 1.65418C14.9977 1.66952 17.0073 2.98154 17.4705 3.42336C19.0151 4.79576 19.804 8.08589 19.2273 12.9046L19.2328 12.8941V12.8941ZM6.57084 4.77468C6.79413 4.77468 6.99435 4.87914 7.15121 5.07274C7.1549 5.07465 7.68636 5.73881 7.91703 6.0637C8.13386 6.37039 8.42543 6.85916 8.57306 7.1323C8.83603 7.62108 8.66902 8.12135 8.41436 8.32836L7.89212 8.75963C7.62916 8.9791 7.66145 9.38546 7.66145 9.38546C7.66145 9.38546 8.43651 12.4111 11.3144 13.1739C11.3144 13.1739 11.7074 13.2113 11.9178 12.9382L12.3339 12.3929C12.5305 12.1197 13.0112 11.9472 13.4817 12.2194C13.7447 12.3632 14.2153 12.666 14.5115 12.8941C14.8242 13.1241 15.4637 13.6857 15.4674 13.6857C15.7718 13.9454 15.8401 14.3461 15.6334 14.7486V14.7639C15.4212 15.1521 15.1343 15.5114 14.7717 15.8574H14.7643C14.4746 16.1162 14.1839 16.2599 13.8933 16.2877C13.8656 16.2877 13.8241 16.3031 13.7678 16.2877C13.6432 16.2877 13.5187 16.2599 13.395 16.2293V16.2159C12.9521 16.0865 12.2186 15.7558 10.9997 15.0505C10.2108 14.5914 9.54742 14.1304 8.97997 13.656C8.68932 13.4116 8.38484 13.1385 8.07943 12.8222L8.0093 12.7954L7.98162 12.7666L7.95486 12.7388C7.64946 12.4226 7.38741 12.1063 7.15121 11.7996C6.70832 11.216 6.26543 10.5278 5.82346 9.70172C5.14529 8.43666 4.82696 7.67474 4.7024 7.21376H4.68764C4.64612 7.08535 4.61844 6.95596 4.63228 6.82658C4.61844 6.76812 4.63228 6.72595 4.63228 6.69145C4.65996 6.4049 4.80667 6.103 5.05487 5.78674H5.05948C5.38703 5.41297 5.74042 5.11204 6.11688 4.89257C6.2682 4.80536 6.42044 4.76319 6.55884 4.76319H6.5736L6.57084 4.77469L6.57084 4.77468ZM10.3492 4.12011H10.4563L10.5264 4.12202H10.5448L10.627 4.12681H11.0984L11.223 4.14119H11.2913L11.4297 4.15652H11.4574L11.5533 4.1709H11.5681L11.6364 4.18527C11.6788 4.18527 11.7065 4.20061 11.7333 4.20061H11.8172L11.8864 4.2284L11.9418 4.24373L11.9971 4.25811L12.0248 4.27248H12.0663L12.1088 4.28781H12.1355L12.2038 4.30315L12.2453 4.31656L12.2878 4.3319L12.3432 4.34723L12.3708 4.36065C12.3985 4.36065 12.4262 4.37598 12.4548 4.37598L12.4954 4.39036L12.5378 4.40569L12.6476 4.44786L12.7039 4.47756L12.8285 4.53506L12.87 4.54944L12.9115 4.56477L12.9946 4.6079L13.0508 4.62227L13.0776 4.63665L13.1477 4.66636L13.1745 4.67977L13.2308 4.70948L13.2723 4.7229L13.3138 4.75165L13.3682 4.7804L13.4107 4.80819L13.4384 4.82352L13.4947 4.85227L13.5353 4.88102L13.6045 4.92415L13.646 4.93948L13.7143 4.98165L13.729 4.99602L13.7705 5.02573L13.8536 5.09665L13.896 5.1254L13.9366 5.15415L13.9652 5.16756L14.0067 5.19727L14.075 5.26819L14.1313 5.31131L14.1728 5.34006L14.1876 5.35444L14.2143 5.36977L14.2826 5.42823L14.3251 5.4704L14.3528 5.49915L14.3943 5.52694L14.4358 5.55665L14.4626 5.57102L14.5733 5.68602L14.6286 5.74448L14.7532 5.87386L14.7818 5.90165C14.7966 5.91698 14.8233 5.94477 14.8381 5.97352L14.8648 6.00227L15.018 6.18819L15.0595 6.24569C15.0724 6.26102 15.0724 6.2754 15.0863 6.2754L15.1693 6.40477L15.2108 6.4479L15.2939 6.5629L15.364 6.6779L15.4055 6.76415L15.46 6.86477L15.5015 6.95102L15.5163 6.97881L15.543 7.03727L15.6131 7.18102L15.6814 7.32381L15.71 7.39569C15.7645 7.52506 15.806 7.65445 15.8613 7.79821C15.9296 7.9851 15.9859 8.1854 16.0274 8.40199C16.0689 8.56012 16.0975 8.70388 16.1243 8.86201L16.1511 9.12078L16.1926 9.40829C16.2073 9.52425 16.2212 9.65364 16.2212 9.76768C16.2341 9.88364 16.2341 9.9977 16.2341 10.1117V10.3571C16.2341 10.3724 16.2286 10.3849 16.2212 10.4002C16.2064 10.429 16.1926 10.4433 16.1649 10.4721C16.1455 10.4865 16.1197 10.5162 16.0911 10.5162C16.0643 10.5296 16.0367 10.5296 16.008 10.5296H15.9665C15.9398 10.5296 15.9121 10.5162 15.8835 10.5018C15.8567 10.4865 15.8272 10.473 15.8152 10.4433C15.8004 10.4155 15.7737 10.3849 15.7589 10.3571C15.7442 10.3293 15.7303 10.2996 15.7303 10.2708V9.92678C15.7174 9.72648 15.7036 9.51947 15.6759 9.31437C15.6611 9.17446 15.6344 9.04219 15.6196 8.91185C15.6196 8.84094 15.6048 8.77194 15.5928 8.71155L15.5661 8.5678L15.531 8.43268L15.5163 8.34643L15.4747 8.20268C15.448 8.08768 15.4065 7.97267 15.3649 7.85766C15.3382 7.77045 15.3087 7.69953 15.2681 7.62861L15.2413 7.55577L15.1167 7.29701L15.0881 7.25389C15.0318 7.12451 14.9636 6.99512 14.8805 6.87916L14.839 6.80824H14.6535L14.5945 6.72103C14.5437 6.63574 14.4893 6.56291 14.4284 6.49198L14.3131 6.34823L14.2992 6.3329L14.2568 6.27827L14.2245 6.23515L14.1553 6.16423L14.1415 6.13548L14.0769 6.07798L14.0353 6.0339L13.9588 5.96202L13.9219 5.92656L13.8794 5.88344L13.8656 5.8681C13.8508 5.85373 13.8241 5.82498 13.7964 5.8106L13.7262 5.75119L13.6986 5.73681L13.6423 5.69273L13.574 5.63523L13.5325 5.60073L13.5048 5.5854L13.4494 5.5346C13.4494 5.51927 13.4347 5.51927 13.4208 5.51927L13.3941 5.49148L13.3802 5.47615V5.46369L13.3526 5.45027L13.2963 5.41481L13.2557 5.3851L13.1865 5.34198L13.1311 5.29885L13.1044 5.28352L13.0748 5.27106H12.9918L12.9743 5.25573L12.9143 5.22219L12.906 5.20877L12.8783 5.19344L12.8368 5.17331H12.8257L12.7842 5.15798L12.7611 5.1436L12.7196 5.12923L12.7104 5.11869L12.6827 5.10335L12.6338 5.07556L12.6061 5.06119L12.5231 5.03244L12.4548 5.00465L12.3284 4.98931L12.2878 4.96152C12.2739 4.95194 12.2601 4.94619 12.2453 4.94619L12.2186 4.93181C12.1918 4.92127 12.1771 4.91648 12.1494 4.90306L12.1217 4.88773H12.0949L12.0387 4.85994L12.0119 4.8446L11.9704 4.83023H11.8855C11.8781 4.83023 11.868 4.82544 11.8578 4.82352H11.7748L11.7332 4.80819H11.7194L11.6779 4.79285H11.6401C11.617 4.77944 11.5985 4.77944 11.5755 4.77944L11.5662 4.7641L11.5109 4.74973C11.4832 4.7344 11.4592 4.7344 11.4334 4.7344L11.3919 4.72002L11.3457 4.70469L11.3042 4.69127L11.2479 4.67594H11.1916L11.0265 4.65485H10.9434L10.8364 4.64048H10.7663L10.7035 4.63281H10.6758L10.626 4.61748H10.3631L10.3538 4.6031H10.2976C10.2699 4.6031 10.2385 4.58873 10.2145 4.57435C10.1868 4.55902 10.1582 4.54656 10.1398 4.51685L10.1121 4.47277C10.0853 4.44498 10.0853 4.41527 10.0706 4.38652C10.0577 4.35969 10.0577 4.32998 10.0577 4.30123C10.0577 4.27248 10.0577 4.24373 10.0715 4.21498C10.0863 4.18719 10.0983 4.15748 10.1278 4.1431C10.1416 4.11435 10.1684 4.10094 10.1961 4.0856C10.2228 4.07027 10.2523 4.05685 10.2791 4.05685H10.3354L10.3492 4.1201L10.3492 4.12011ZM10.8604 5.6286L10.8945 5.63147L10.9508 5.63722C10.9582 5.63722 10.9674 5.63722 10.9776 5.6401C10.9979 5.6401 11.0191 5.64393 11.0468 5.64585L11.1021 5.65352L11.1243 5.66885L11.1658 5.68322L11.2101 5.6976L11.2516 5.71293H11.2793L11.3181 5.72731L11.3826 5.74168L11.4343 5.75702L11.4583 5.77043H11.5257L11.6355 5.79727L11.6779 5.81164L11.7194 5.82602L11.7609 5.84135C11.7609 5.84135 11.7748 5.84135 11.7748 5.85572L11.8172 5.8701L11.8578 5.88543L11.8993 5.90077C11.9132 5.90077 11.927 5.91418 11.9418 5.91418C11.9482 5.91418 11.9547 5.92952 11.9649 5.92952L12.0239 5.95827H12.0507L12.1337 5.98702L12.1798 6.01481L12.2223 6.04356L12.3219 6.08668L12.3773 6.10106L12.4059 6.13077C12.4474 6.14418 12.4889 6.17293 12.5305 6.18731L12.5747 6.21606L12.619 6.24481L12.6642 6.2726C12.7058 6.30135 12.7399 6.31668 12.7759 6.34543L12.8026 6.35885L12.8405 6.38856L12.8608 6.40293L12.93 6.44606L12.9641 6.47481L13.0241 6.51602L13.0509 6.53039L13.0785 6.54477L13.121 6.57352L13.1763 6.6176C13.1902 6.63102 13.1966 6.63102 13.2077 6.64539C13.2169 6.65977 13.2225 6.65977 13.2308 6.67414L13.2612 6.70289L13.2944 6.73068L13.3221 6.75943L13.3646 6.80352L13.3913 6.83227L13.4061 6.8476L13.4891 6.93289L13.5039 6.94822C13.5039 6.9626 13.5177 6.97697 13.5307 6.97697L13.5454 6.98943L13.5869 7.03352L13.6137 7.07664L13.6414 7.10539L13.6829 7.16289L13.7253 7.20697L13.8084 7.32102L13.8213 7.34881L13.8776 7.42164L13.8923 7.44943L13.9062 7.47914L13.92 7.50693L13.9348 7.53568C13.9495 7.55006 13.9495 7.56443 13.9615 7.59318L14.0012 7.66602L14.016 7.68039L14.0427 7.73885L14.0713 7.78102C14.0843 7.79539 14.0843 7.80881 14.0981 7.82414L14.1258 7.86727L14.1535 7.92572L14.1802 7.98227L14.195 8.02635C14.2088 8.06852 14.2365 8.09822 14.2503 8.14135C14.2503 8.15572 14.2642 8.16914 14.2642 8.18447L14.3057 8.29852L14.362 8.48539C14.362 8.50072 14.3758 8.52852 14.3758 8.54385L14.4183 8.67322L14.4589 8.84574L14.5013 9.07575C14.5142 9.14667 14.5142 9.20513 14.5281 9.27797C14.5428 9.39201 14.5557 9.50607 14.5557 9.62203L14.5696 9.82329V9.98142C14.5696 9.99675 14.5696 10.0092 14.5557 10.0245L14.5151 10.0658C14.4884 10.0878 14.4736 10.1089 14.4469 10.1242C14.4192 10.1386 14.3906 10.152 14.3638 10.1625C14.3352 10.1779 14.2946 10.1779 14.2669 10.1779C14.2402 10.1779 14.2107 10.1625 14.1839 10.1491C14.1691 10.1491 14.1562 10.1338 14.1424 10.129C14.1138 10.1156 14.0861 10.0916 14.0732 10.0667C14.0455 10.038 14.0307 10.0092 14.0307 9.9795L14.0178 9.93733V9.63736C14.0178 9.5099 14.0031 9.39201 13.9892 9.26838C13.9754 9.13901 13.9486 8.99524 13.9209 8.86586C13.8942 8.77961 13.8794 8.69336 13.8517 8.61668L13.8241 8.52947L13.7973 8.4576L13.7825 8.42885L13.741 8.31385L13.6995 8.2276L13.6303 8.08481L13.5666 7.96981V7.9516L13.5399 7.90656L13.5122 7.87014L13.4707 7.79827L13.4282 7.73981L13.3461 7.62577C13.3037 7.56731 13.2631 7.51077 13.2151 7.45518C13.2022 7.44081 13.1883 7.42739 13.1883 7.41206L13.1606 7.38427L13.145 7.36893L13.1173 7.35552L13.0896 7.32964V7.18972L12.9798 7.08143L12.9106 7.01627V7.00285L12.8829 6.97314L12.8479 6.94535L12.834 6.93002C12.834 6.91564 12.8193 6.91564 12.8073 6.91564L12.7648 6.90031L12.751 6.88593L12.6947 6.84281L12.6818 6.82747L12.667 6.8131C12.6559 6.79872 12.6458 6.79872 12.6393 6.79872L12.584 6.7556L12.5692 6.74027L12.5138 6.71247L12.5037 6.69714L12.4622 6.66935L12.4345 6.65402L12.4068 6.62622L12.3801 6.59652H12.3653C12.3385 6.56872 12.3099 6.55435 12.2684 6.53902L12.2278 6.51027L12.2001 6.49685L12.1854 6.48152L12.1439 6.45277L12.1033 6.43839L12.0479 6.40964L12.0055 6.39527L11.9916 6.37993L11.9399 6.36652V6.35502L11.856 6.32627L11.8006 6.29752L11.7729 6.28314H11.7176C11.6899 6.26877 11.6761 6.26877 11.6484 6.25439H11.6078L11.5663 6.23906H11.5257L11.4832 6.22564L11.4565 6.21031H11.4002L11.3439 6.19593L11.3171 6.1806H11.1649L11.1012 6.16622H10.7774L10.7349 6.15089C10.7082 6.13747 10.6796 6.1231 10.6519 6.09339C10.639 6.06464 10.6104 6.03589 10.5965 6.0081C10.5827 5.97839 10.5688 5.94964 10.5688 5.92089V5.83464C10.5744 5.79056 10.5836 5.76277 10.5965 5.73402C10.6039 5.71964 10.6104 5.70527 10.6242 5.69089C10.6408 5.66214 10.6657 5.63339 10.6934 5.61902C10.7072 5.60464 10.7211 5.60464 10.734 5.59122C10.7626 5.57589 10.7903 5.57589 10.818 5.57589H10.8733L10.8604 5.6286H10.8604ZM11.2793 7.1898C11.2931 7.1898 11.307 7.1898 11.3199 7.19364C11.3347 7.19364 11.3485 7.19364 11.3623 7.19555L11.4103 7.20034C11.5063 7.20897 11.6068 7.22334 11.7037 7.24443L11.7997 7.26647L11.8237 7.27414L11.9289 7.30193L11.9833 7.32109L12.0257 7.33643C12.0673 7.34984 12.1097 7.37955 12.1503 7.39393L12.1651 7.4083L12.2204 7.43705L12.3035 7.48114L12.3302 7.49455C12.345 7.50989 12.3588 7.50989 12.3727 7.5233C12.3865 7.53864 12.4142 7.55205 12.428 7.56643C12.4843 7.59518 12.5249 7.6383 12.5664 7.66705L12.6633 7.7533L12.7464 7.84051L12.8026 7.91143L12.8294 7.93922L12.8571 7.96893L12.8977 8.02643L12.9816 8.1558L13.0508 8.28518L13.1062 8.40018L13.1487 8.5008C13.1892 8.60047 13.204 8.68768 13.2317 8.78736C13.2585 8.87457 13.2732 8.97521 13.2871 9.0605L13.3009 9.20425L13.3157 9.33458V9.39112C13.3157 9.43425 13.3009 9.463 13.288 9.49175C13.2741 9.51954 13.2455 9.56266 13.2188 9.578C13.1911 9.60579 13.1625 9.62112 13.1219 9.63646C13.0951 9.64987 13.0665 9.64987 13.0389 9.64987C13.0121 9.64987 12.9835 9.64987 12.9558 9.63646L12.8599 9.59237C12.8322 9.56362 12.8045 9.54925 12.7759 9.50516C12.762 9.47737 12.7491 9.44767 12.7344 9.4055V9.2464L12.7205 9.14577L12.7067 9.03173L12.6919 8.9311L12.6772 8.8736C12.6772 8.85923 12.6642 8.83048 12.6642 8.8161C12.6366 8.70015 12.5812 8.58609 12.5258 8.47109L12.4696 8.41359L12.4262 8.35609L12.3847 8.31296L12.3708 8.28421L12.3016 8.22671L12.2453 8.16825L12.1909 8.12513C12.1761 8.11075 12.1632 8.11075 12.1346 8.09734L12.0516 8.03888L11.9953 8.01013L11.9685 7.99575H11.9538L11.8837 7.96605L11.8006 7.93729L11.7176 7.92292H11.6484L11.6078 7.90855L11.5755 7.90184H11.534L11.4786 7.8865H11.2433L11.2295 7.81463H11.1935C11.1658 7.8108 11.1427 7.80025 11.1197 7.78684C11.0874 7.76671 11.0606 7.74371 11.0366 7.71017C11.02 7.68238 11.0053 7.65171 10.9951 7.62392C10.9877 7.59613 10.984 7.56642 10.984 7.53767C10.984 7.50221 10.984 7.4658 10.9979 7.42938C11.0117 7.392 11.0256 7.36229 11.0532 7.33354L11.1095 7.29042C11.1363 7.27509 11.1658 7.26167 11.1926 7.26167L11.2498 7.1898H11.2793L11.2793 7.1898Z" fill="#195CDF"/>
</svg>
