<svg width="26" height="26" viewBox="0 0 26 26" fill="none" xmlns="http://www.w3.org/2000/svg">
<path d="M13 26C10.4288 26 7.91543 25.2376 5.77759 23.8091C3.63975 22.3807 1.97351 20.3503 0.989572 17.9749C0.0056327 15.5995 -0.251811 12.9856 0.249797 10.4638C0.751405 7.94208 1.98953 5.6257 3.80762 3.80762C5.6257 1.98953 7.94208 0.751405 10.4638 0.249797C12.9856 -0.251811 15.5995 0.0056327 17.9749 0.989572C20.3503 1.97351 22.3807 3.63975 23.8091 5.77759C25.2376 7.91543 26 10.4288 26 13C26 16.4478 24.6304 19.7544 22.1924 22.1924C19.7544 24.6304 16.4478 26 13 26ZM13 2.00001C10.8244 2.00001 8.69767 2.64514 6.88873 3.85384C5.07979 5.06254 3.66989 6.7805 2.83733 8.79049C2.00477 10.8005 1.78693 13.0122 2.21137 15.146C2.63581 17.2798 3.68345 19.2398 5.22183 20.7782C6.76021 22.3166 8.72022 23.3642 10.854 23.7886C12.9878 24.2131 15.1995 23.9952 17.2095 23.1627C19.2195 22.3301 20.9375 20.9202 22.1462 19.1113C23.3549 17.3023 24 15.1756 24 13C24 10.0826 22.8411 7.28473 20.7782 5.22183C18.7153 3.15893 15.9174 2.00001 13 2.00001Z" fill="#195CDF"/>
<g clip-path="url(#clip0_2_835)">
<path d="M20.9152 16.6799C20.8958 16.6382 20.8777 16.6035 20.861 16.5758C20.5834 16.0758 20.0529 15.4621 19.2698 14.7346L19.2533 14.7179L19.245 14.7097L19.2366 14.7014H19.2282C18.8728 14.3626 18.6478 14.1348 18.5535 14.0182C18.3811 13.796 18.3425 13.5711 18.4367 13.3433C18.5033 13.1711 18.7534 12.8076 19.1865 12.2521C19.4143 11.9577 19.5947 11.7218 19.7279 11.5441C20.6888 10.2666 21.1053 9.45035 20.9775 9.09488L20.9279 9.01181C20.8946 8.9618 20.8085 8.91604 20.6698 8.87432C20.5308 8.83268 20.3531 8.8258 20.1365 8.85355L17.7373 8.87012C17.6985 8.85635 17.643 8.85763 17.5707 8.87432C17.4985 8.89101 17.4623 8.89938 17.4623 8.89938L17.4206 8.92025L17.3874 8.94531C17.3597 8.96188 17.3291 8.99103 17.2958 9.0327C17.2626 9.07422 17.2348 9.12295 17.2127 9.17847C16.9515 9.85047 16.6545 10.4753 16.3212 11.0528C16.1157 11.3972 15.927 11.6957 15.7546 11.9484C15.5825 12.201 15.4381 12.3871 15.3215 12.5064C15.2048 12.6259 15.0995 12.7215 15.0049 12.7938C14.9105 12.8661 14.8384 12.8967 14.7884 12.8855C14.7384 12.8743 14.6913 12.8632 14.6467 12.8521C14.569 12.8021 14.5065 12.7341 14.4593 12.648C14.412 12.562 14.3801 12.4536 14.3635 12.3231C14.3469 12.1925 14.3371 12.0802 14.3343 11.9857C14.3317 11.8914 14.3329 11.758 14.3385 11.5858C14.3443 11.4136 14.3469 11.297 14.3469 11.2359C14.3469 11.0249 14.351 10.7958 14.3593 10.5486C14.3677 10.3015 14.3745 10.1057 14.3802 9.96143C14.3858 9.81703 14.3885 9.66426 14.3885 9.50319C14.3885 9.34213 14.3787 9.21582 14.3593 9.12414C14.3401 9.03258 14.3108 8.94371 14.272 8.85754C14.2331 8.77147 14.1761 8.70488 14.1013 8.65762C14.0263 8.61041 13.9331 8.57294 13.8222 8.5451C13.5278 8.47849 13.153 8.44246 12.6975 8.43685C11.6646 8.42577 11.0008 8.49247 10.7065 8.63687C10.5899 8.69788 10.4843 8.78124 10.39 8.88669C10.29 9.00892 10.276 9.07562 10.3482 9.08659C10.6815 9.13651 10.9174 9.25594 11.0563 9.44475L11.1063 9.5448C11.1452 9.61699 11.1841 9.74479 11.223 9.92803C11.2618 10.1113 11.2869 10.314 11.2979 10.536C11.3256 10.9415 11.3256 11.2886 11.2979 11.5773C11.2701 11.8662 11.2439 12.0911 11.2188 12.2521C11.1937 12.4132 11.1563 12.5437 11.1063 12.6437C11.0563 12.7436 11.023 12.8047 11.0063 12.8269C10.9896 12.8491 10.9757 12.863 10.9647 12.8685C10.8925 12.8962 10.8175 12.9103 10.7398 12.9103C10.6619 12.9103 10.5676 12.8714 10.4565 12.7936C10.3455 12.7158 10.2303 12.6089 10.1109 12.4728C9.99143 12.3367 9.85674 12.1465 9.70674 11.9022C9.55685 11.6578 9.40133 11.3691 9.24027 11.0359L9.10701 10.7942C9.02371 10.6387 8.90991 10.4124 8.76551 10.1153C8.62102 9.81814 8.49331 9.53068 8.38229 9.25299C8.33791 9.13637 8.27124 9.04758 8.18239 8.98648L8.14069 8.96142C8.11297 8.93924 8.06848 8.91569 8.00744 8.8906C7.94631 8.86554 7.88253 8.84756 7.81582 8.83651L5.53326 8.85308C5.30001 8.85308 5.14175 8.90592 5.05841 9.01146L5.02506 9.06138C5.0084 9.08919 5 9.1336 5 9.19472C5 9.25582 5.01666 9.33081 5.05001 9.4196C5.38322 10.2027 5.74559 10.958 6.1371 11.6855C6.52861 12.4131 6.86882 12.9991 7.15754 13.4431C7.44631 13.8875 7.74066 14.3069 8.04058 14.7011C8.3405 15.0954 8.53903 15.3481 8.63617 15.4591C8.73342 15.5704 8.8098 15.6535 8.86533 15.709L9.07363 15.9089C9.20692 16.0423 9.40264 16.2019 9.6609 16.3879C9.91921 16.574 10.2052 16.7573 10.519 16.9379C10.8328 17.1183 11.1979 17.2655 11.6145 17.3793C12.031 17.4932 12.4364 17.5389 12.8307 17.5169H13.7888C13.9831 17.5001 14.1303 17.439 14.2303 17.3336L14.2635 17.2918C14.2858 17.2587 14.3066 17.2072 14.3259 17.1379C14.3454 17.0684 14.3551 16.992 14.3551 16.9088C14.3494 16.67 14.3675 16.4548 14.4091 16.2632C14.4506 16.0717 14.4979 15.9273 14.5509 15.8301C14.6038 15.7329 14.6635 15.6509 14.7299 15.5844C14.7965 15.5178 14.8439 15.4775 14.8718 15.4636C14.8994 15.4496 14.9215 15.4401 14.9382 15.4344C15.0715 15.39 15.2283 15.433 15.409 15.5637C15.5895 15.6942 15.7588 15.8553 15.9172 16.0469C16.0755 16.2386 16.2657 16.4536 16.4878 16.6924C16.71 16.9312 16.9044 17.1088 17.0709 17.2256L17.2375 17.3256C17.3487 17.3923 17.4931 17.4534 17.6708 17.5089C17.8483 17.5644 18.0037 17.5783 18.1372 17.5505L20.2698 17.5173C20.4807 17.5173 20.6448 17.4823 20.7612 17.413C20.8779 17.3436 20.9472 17.2671 20.9695 17.184C20.9918 17.1007 20.993 17.0062 20.9738 16.9006C20.954 16.7952 20.9346 16.7215 20.9152 16.6799Z" fill="#195CDF"/>
</g>
<defs>
<clipPath id="clip0_2_835">
<rect width="16" height="16" fill="white" transform="translate(5 5)"/>
</clipPath>
</defs>
</svg>
