<svg width="20" height="24" viewBox="0 0 20 24" fill="none" xmlns="http://www.w3.org/2000/svg">
<path d="M14.2513 3.09767L14.2513 3.09777C14.7548 3.2714 15.8972 3.51575 16.9178 3.71723C17.4272 3.8178 17.905 3.90745 18.2554 3.97195C18.4306 4.00421 18.5739 4.03017 18.6735 4.04807L18.7884 4.06865L18.8185 4.07398L18.8261 4.07534L18.828 4.07568L18.828 4.07568L18.8285 4.07577L18.8286 4.07579L18.82 4.12503C18.922 4.14157 19.0149 4.1937 19.0822 4.27218C19.1495 4.35066 19.1868 4.45042 19.1875 4.55378L14.2513 3.09767ZM14.2513 3.09767L14.2483 3.09685M14.2513 3.09767L14.2483 3.09685M14.2483 3.09685C12.821 2.7016 11.4863 2.02703 10.3216 1.11225C10.2351 1.02966 10.1213 0.981703 10.0017 0.977564V0.977557M14.2483 3.09685L10.0017 0.977557M10.0017 0.977557L10.0009 0.977542M10.0017 0.977557L10.0009 0.977542M10.0009 0.977542C9.87149 0.975279 9.74637 1.02364 9.65216 1.11228C8.4988 2.03447 7.16831 2.70994 5.74315 3.09678L5.74312 3.09666M10.0009 0.977542L5.74312 3.09666M5.74312 3.09666L5.73982 3.09781M5.74312 3.09666L5.73982 3.09781M5.73982 3.09781C5.24066 3.27143 4.11787 3.51578 3.10726 3.71725C2.60279 3.81782 2.12755 3.90745 1.77409 3.97194C1.59736 4.00419 1.45115 4.03013 1.347 4.048C1.29491 4.05694 1.25348 4.06384 1.22407 4.06849C1.20933 4.07082 1.19782 4.07255 1.18959 4.07369C1.18423 4.07443 1.18128 4.07476 1.18 4.07491M5.73982 3.09781L1.18 4.07491M1.18 4.07491V4.07438L1.172 4.07568C1.05831 4.0941 0.954808 4.15219 0.879851 4.23964C0.804894 4.32709 0.763321 4.43825 0.762501 4.55343H0.7625V4.55378C0.7625 11.6378 0.848557 14.9264 3.0281 18.2748L1.18 4.07491ZM6.0749 4.09472L6.07492 4.09482L6.07794 4.09384C7.48245 3.63788 8.80622 2.96339 10.0006 2.09525C11.2081 2.94002 12.5403 3.59085 13.9491 4.02408L13.949 4.02413L13.9514 4.02472C15.3808 4.39054 16.8286 4.68087 18.2885 4.89449C18.253 12.1529 18.065 14.7754 16.1531 17.7128L16.145 17.7252V17.74V17.7601C15.3889 18.9127 14.0505 19.8879 12.7946 20.616C11.5541 21.3352 10.4001 21.8098 9.9825 21.9738C9.56528 21.8098 8.41996 21.3352 7.18802 20.6161C5.93638 19.8854 4.6016 18.9058 3.84689 17.7477C1.93506 14.8105 1.747 12.1879 1.73755 4.96452C3.1976 4.75098 4.64539 4.46065 6.0749 4.09472Z" fill="#195CDF" stroke="#195CDF" stroke-width="0.1"/>
<path d="M5.90573 11.5081C5.86296 11.47 5.81302 11.4409 5.75884 11.4225C5.70466 11.4041 5.64733 11.3967 5.59025 11.4008C5.53317 11.4049 5.47748 11.4203 5.42647 11.4463C5.37545 11.4722 5.33015 11.5081 5.29323 11.5518C5.21916 11.6417 5.18318 11.757 5.19299 11.8731C5.2028 11.9892 5.25762 12.0968 5.34573 12.1731L9.72073 15.9093C9.79758 15.9782 9.89752 16.0157 10.0007 16.0143H10.062C10.1236 16.0054 10.1827 15.9836 10.2355 15.9505C10.2882 15.9173 10.3334 15.8735 10.3682 15.8218L15.4607 8.34931C15.5269 8.253 15.552 8.13437 15.5307 8.0195C15.5094 7.90463 15.4433 7.80295 15.347 7.73681C15.2507 7.67067 15.132 7.6455 15.0172 7.66683C14.9023 7.68816 14.8006 7.75425 14.7345 7.85056L9.91323 14.9293L5.90573 11.5081Z" fill="#195CDF"/>
</svg>
