<svg width="93" height="97" viewBox="0 0 93 97" fill="none" xmlns="http://www.w3.org/2000/svg">
<path d="M62.415 19.7095L62.4147 19.7092C61.587 18.8758 60.129 18.8758 59.3013 19.7092L59.301 19.7095C58.7032 20.3125 51.4416 27.687 44.326 36.9117C40.7686 41.5235 37.239 46.609 34.5966 51.55C31.9611 56.478 30.1758 61.3206 30.1758 65.4312C30.1758 82.0532 43.9488 95.5594 60.8581 95.5594C77.7672 95.5594 91.5404 82.0532 91.5404 65.4312C91.5404 61.3206 89.7551 56.478 87.1196 51.55C84.4771 46.609 80.9475 41.5235 77.3901 36.9117C70.2745 27.687 63.0129 20.3125 62.415 19.7095ZM60.8581 91.2674C46.3322 91.2674 34.5294 79.668 34.5294 65.4312C34.5294 62.34 35.8266 58.5581 37.9118 54.4958C39.9907 50.4457 42.8241 46.1711 45.8338 42.1093C51.5972 34.3312 57.977 27.3736 60.8582 24.3289C63.74 27.3728 70.1198 34.3289 75.883 42.1064C78.8925 46.1678 81.7258 50.4424 83.8046 54.4929C85.8896 58.5555 87.1868 62.3383 87.1868 65.4312C87.1868 79.668 75.3839 91.2674 60.8581 91.2674Z" fill="#195CDF" stroke="#195CDF"/>
<path d="M20.3615 2.07444L20.3612 2.07411C19.5325 1.22941 18.0703 1.22941 17.2417 2.07411L17.2414 2.07444C16.4354 2.89752 12.513 6.96814 8.78881 11.9343C6.92693 14.417 5.10625 17.1345 3.74903 19.7901C2.39715 22.4352 1.47852 25.0693 1.47852 27.3719C1.47852 36.8689 9.25161 44.5891 18.8015 44.5891C28.3513 44.5891 36.1243 36.8689 36.1243 27.3719C36.1243 25.0693 35.2057 22.4352 33.8538 19.7901C32.4966 17.1345 30.6759 14.417 28.8141 11.9343C25.0898 6.96814 21.1674 2.89752 20.3615 2.07444ZM18.8015 40.254C11.6496 40.254 5.83457 34.4714 5.83457 27.3719C5.83457 26.0562 6.34794 24.4001 7.23718 22.5418C8.1213 20.6943 9.3534 18.6947 10.7381 16.7059C13.3641 12.9341 16.5128 9.23785 18.8016 6.74887C21.091 9.23696 24.2397 12.9319 26.8654 16.7032C28.25 18.6917 29.4819 20.6913 30.3659 22.5392C31.255 24.3977 31.7683 26.0547 31.7683 27.3719C31.7683 34.4714 25.9532 40.254 18.8015 40.254Z" fill="#195CDF" stroke="#195CDF"/>
<path d="M17.1572 32.5745C14.1933 32.5745 11.7824 30.195 11.7824 27.2697C11.7824 26.2933 10.981 25.5014 9.99081 25.5014C9.00055 25.5014 8.19922 26.2933 8.19922 27.2697C8.19922 32.1445 12.2181 36.111 17.1572 36.111C18.1474 36.111 18.9488 35.3192 18.9488 34.3427C18.9488 33.3663 18.1474 32.5745 17.1572 32.5745Z" fill="#195CDF"/>
<path d="M62.7511 83.8539C52.8727 83.8539 44.8351 75.9219 44.8351 66.1713C44.8351 65.1949 44.0337 64.4031 43.0435 64.4031C42.0533 64.4031 41.252 65.1949 41.252 66.1713C41.252 77.8714 50.8957 87.3904 62.7511 87.3904C63.7412 87.3904 64.5427 86.5986 64.5427 85.6222C64.5427 84.6458 63.7412 83.8539 62.7511 83.8539Z" fill="#195CDF"/>
</svg>
