<svg width="22" height="21" viewBox="0 0 22 21" fill="none" xmlns="http://www.w3.org/2000/svg">
<path d="M21.3803 9.83346C21.3547 12.534 20.6604 14.6466 19.2165 16.4825C17.666 18.4546 15.647 19.7069 13.1766 20.2137C11.2683 20.6014 9.4112 20.431 7.58816 19.7708C7.18351 19.6217 6.78738 19.447 6.40829 19.2383C6.29328 19.1744 6.19532 19.1659 6.06753 19.2085C4.34245 19.7665 2.61312 20.3202 0.883779 20.8697C0.807109 20.8953 0.704882 20.9677 0.64525 20.9123C0.577098 20.8441 0.662287 20.7419 0.687844 20.661C1.03286 19.6345 1.37788 18.6037 1.72715 17.5771C1.94012 16.951 2.14458 16.3291 2.36607 15.7072C2.4257 15.5454 2.4044 15.4219 2.31496 15.2728C1.87623 14.5231 1.55251 13.7223 1.3225 12.8832C0.892298 11.3072 0.845444 9.7142 1.18194 8.12116C1.54825 6.3833 2.31495 4.83286 3.49482 3.4954C4.92174 1.8768 6.68089 0.807681 8.77228 0.292287C10.1055 -0.035691 11.4515 -0.0868043 12.806 0.134687C14.5779 0.42433 16.1752 1.12714 17.5681 2.26015C19.0163 3.44002 20.0726 4.90527 20.7371 6.66443C21.1034 7.61428 21.393 9.16899 21.3803 9.83346ZM3.24352 18.3396C4.29986 17.9988 5.30935 17.6751 6.31032 17.3471C6.44236 17.3045 6.54885 17.3131 6.66386 17.3897C7.04721 17.6453 7.46037 17.8497 7.88632 18.0286C9.27064 18.6165 10.7103 18.8294 12.1969 18.6377C14.0199 18.4035 15.6215 17.6709 16.9675 16.3973C18.6627 14.7915 19.57 12.8236 19.6509 10.4979C19.7276 8.21913 18.995 6.21719 17.4658 4.51766C16.0134 2.90333 14.1903 1.98329 12.0393 1.75328C10.1694 1.55308 8.41875 1.95773 6.80016 2.92889C5.41584 3.76374 4.35523 4.90101 3.61835 6.33645C2.80479 7.91671 2.52793 9.59493 2.7622 11.3541C2.93684 12.683 3.41389 13.9055 4.1806 15.0044C4.26578 15.128 4.29134 15.2302 4.24023 15.375C4.08263 15.8095 3.94207 16.2482 3.79298 16.6827C3.61409 17.2194 3.43945 17.756 3.24352 18.3396Z" fill="#195CDF"/>
<path d="M6.07172 7.82729C6.09301 6.81354 6.45081 6.05962 7.12806 5.45904C7.34529 5.2631 7.61364 5.17791 7.91606 5.22051C8.04384 5.23754 8.17163 5.25032 8.29941 5.2418C8.53794 5.22903 8.6998 5.34403 8.78073 5.55274C9.06611 6.29389 9.34298 7.03503 9.61984 7.78044C9.71355 8.03601 9.55169 8.2362 9.41539 8.41936C9.25779 8.63659 9.06611 8.82826 8.8787 9.01994C8.68702 9.21587 8.66146 9.32662 8.79351 9.56515C9.56447 10.9665 10.6464 12.0441 12.1159 12.7086C12.167 12.7299 12.2181 12.7597 12.2692 12.7853C12.4652 12.8747 12.6398 12.8534 12.7889 12.6831C13.0615 12.3636 13.3596 12.0697 13.6109 11.7332C13.7771 11.5117 13.8921 11.4734 14.1434 11.5841C14.893 11.9078 15.5959 12.3168 16.3114 12.7129C16.4435 12.7853 16.4903 12.896 16.4861 13.0494C16.4477 14.3059 15.7279 14.9619 14.4628 15.2515C13.8495 15.3921 13.283 15.2387 12.7207 15.0343C11.5409 14.6083 10.4036 14.1057 9.44946 13.2624C8.69128 12.5894 8.02255 11.8397 7.45604 11.0006C7.02158 10.3531 6.57007 9.71849 6.31877 8.96457C6.17394 8.56418 6.06746 8.15527 6.07172 7.82729Z" fill="#195CDF"/>
</svg>
