<svg width="170" height="38" viewBox="0 0 170 38" fill="none" xmlns="http://www.w3.org/2000/svg">
<path d="M31.3874 30.0465C31.2156 30.0465 31.0545 29.9829 30.9042 29.8556C30.7754 29.7072 30.711 29.5481 30.711 29.3784C30.711 29.2512 30.7217 29.1557 30.7432 29.0921L38.3127 8.66752C38.3771 8.41301 38.5166 8.20092 38.7314 8.03125C38.9461 7.86157 39.2253 7.77673 39.5689 7.77673H44.336C44.6796 7.77673 44.9588 7.86157 45.1735 8.03125C45.3882 8.20092 45.5278 8.41301 45.5922 8.66752L53.1295 29.0921L53.1939 29.3784C53.1939 29.5481 53.1188 29.7072 52.9684 29.8556C52.8396 29.9829 52.6785 30.0465 52.4853 30.0465H48.5234C48.008 30.0465 47.6644 29.8238 47.4927 29.3784L46.2364 26.1334H37.6362L36.4122 29.3784C36.2404 29.8238 35.8861 30.0465 35.3493 30.0465H31.3874ZM44.948 21.5522L41.9524 13.1533L38.9569 21.5522H44.948ZM56.538 30.0465C56.3233 30.0465 56.13 29.9723 55.9582 29.8238C55.8079 29.6541 55.7327 29.4632 55.7327 29.2512V8.57208C55.7327 8.33878 55.8079 8.1479 55.9582 7.99943C56.13 7.85097 56.3233 7.77673 56.538 7.77673H60.8542C61.0904 7.77673 61.2837 7.85097 61.434 7.99943C61.6058 8.1479 61.6917 8.33878 61.6917 8.57208V29.2512C61.6917 29.4845 61.6058 29.6753 61.434 29.8238C61.2837 29.9723 61.0904 30.0465 60.8542 30.0465H56.538ZM66.9813 30.0465C66.7665 30.0465 66.5733 29.9723 66.4015 29.8238C66.2512 29.6541 66.176 29.4632 66.176 29.2512V8.57208C66.176 8.33878 66.2512 8.1479 66.4015 7.99943C66.5733 7.85097 66.7665 7.77673 66.9813 7.77673H75.7425C78.5556 7.77673 80.7459 8.41301 82.3135 9.68557C83.9025 10.9369 84.6971 12.7185 84.6971 15.0303C84.6971 16.515 84.3427 17.7769 83.6341 18.8162C82.9255 19.8554 81.9484 20.6508 80.703 21.2022L85.1158 29.0285C85.1802 29.1557 85.2124 29.2724 85.2124 29.3784C85.2124 29.5481 85.1373 29.7072 84.987 29.8556C84.8581 29.9829 84.7078 30.0465 84.536 30.0465H80.252C79.6293 30.0465 79.1891 29.7602 78.9314 29.1875L75.2594 22.1885H71.9739V29.2512C71.9739 29.4845 71.888 29.6753 71.7162 29.8238C71.5659 29.9723 71.3726 30.0465 71.1364 30.0465H66.9813ZM75.6781 17.6709C76.6659 17.6709 77.4175 17.4376 77.9329 16.971C78.4482 16.4832 78.7059 15.8151 78.7059 14.9667C78.7059 14.1183 78.4482 13.4502 77.9329 12.9624C77.439 12.4534 76.6874 12.1989 75.6781 12.1989H71.9739V17.6709H75.6781Z" fill="#195CDF"/>
<path d="M96.8535 30.3647C94.8135 30.3647 93.0634 30.0677 91.6031 29.4739C90.1429 28.88 89.037 28.1059 88.2855 27.1515C87.5554 26.1758 87.1688 25.1154 87.1259 23.9701C87.1259 23.8004 87.1903 23.6519 87.3192 23.5247C87.4695 23.3762 87.6413 23.302 87.8345 23.302H91.893C92.1507 23.302 92.3547 23.355 92.505 23.461C92.6768 23.5459 92.8486 23.6837 93.0204 23.8746C93.2996 24.4261 93.7505 24.8821 94.3733 25.2426C94.996 25.6032 95.8227 25.7835 96.8535 25.7835C98.0775 25.7835 99.0116 25.5926 99.6558 25.2108C100.3 24.829 100.622 24.3094 100.622 23.6519C100.622 23.1853 100.45 22.8035 100.107 22.5066C99.7846 22.2097 99.2693 21.9446 98.5606 21.7113C97.852 21.478 96.7998 21.2128 95.404 20.9159C92.8271 20.3857 90.8945 19.6115 89.6061 18.5935C88.3392 17.5542 87.7057 16.0802 87.7057 14.1714C87.7057 12.8776 88.0707 11.7217 88.8008 10.7036C89.5309 9.6856 90.5724 8.89025 91.9253 8.31759C93.2781 7.74494 94.8564 7.45862 96.6602 7.45862C98.5284 7.45862 100.15 7.77676 101.524 8.41304C102.898 9.04932 103.94 9.85527 104.648 10.8309C105.379 11.7853 105.765 12.7291 105.808 13.6623C105.808 13.8532 105.744 14.0123 105.615 14.1395C105.486 14.2668 105.325 14.3304 105.132 14.3304H100.88C100.622 14.3304 100.407 14.288 100.236 14.2032C100.085 14.1183 99.9457 13.9805 99.8168 13.7896C99.688 13.3018 99.3337 12.8882 98.7539 12.5489C98.1956 12.2095 97.4977 12.0398 96.6602 12.0398C95.6939 12.0398 94.953 12.2095 94.4377 12.5489C93.9223 12.8882 93.6646 13.3866 93.6646 14.0441C93.6646 14.4895 93.8042 14.8607 94.0834 15.1576C94.384 15.4545 94.8564 15.7302 95.5006 15.9848C96.1663 16.2181 97.1111 16.462 98.3351 16.7165C100.332 17.077 101.921 17.533 103.102 18.0845C104.305 18.6147 105.185 19.3146 105.744 20.1842C106.302 21.0326 106.581 22.1036 106.581 23.3974C106.581 24.8184 106.162 26.0592 105.325 27.1196C104.509 28.1589 103.36 28.9648 101.878 29.5375C100.418 30.0889 98.7432 30.3647 96.8535 30.3647ZM115.496 30.0465C115.281 30.0465 115.088 29.9723 114.916 29.8238C114.766 29.6542 114.691 29.4633 114.691 29.2512V22.4112L107.218 8.7948C107.154 8.60392 107.121 8.48727 107.121 8.44485C107.121 8.27518 107.186 8.12671 107.315 7.99946C107.465 7.85099 107.637 7.77676 107.83 7.77676H111.856C112.286 7.77676 112.662 7.99946 112.984 8.44485L117.59 16.6529L122.228 8.44485C122.486 7.99946 122.862 7.77676 123.356 7.77676H127.382C127.575 7.77676 127.736 7.85099 127.865 7.99946C127.994 8.12671 128.058 8.27518 128.058 8.44485C128.058 8.5509 128.037 8.66755 127.994 8.7948L120.521 22.4112V29.2512C120.521 29.4845 120.435 29.6754 120.263 29.8238C120.113 29.9723 119.92 30.0465 119.684 30.0465H115.496ZM138.438 30.3647C136.398 30.3647 134.648 30.0677 133.188 29.4739C131.728 28.88 130.622 28.1059 129.87 27.1515C129.14 26.1758 128.754 25.1154 128.711 23.9701C128.711 23.8004 128.775 23.6519 128.904 23.5247C129.054 23.3762 129.226 23.302 129.419 23.302H133.478C133.735 23.302 133.939 23.355 134.09 23.461C134.262 23.5459 134.433 23.6837 134.605 23.8746C134.884 24.4261 135.335 24.8821 135.958 25.2426C136.581 25.6032 137.407 25.7835 138.438 25.7835C139.662 25.7835 140.596 25.5926 141.24 25.2108C141.885 24.829 142.207 24.3094 142.207 23.6519C142.207 23.1853 142.035 22.8035 141.691 22.5066C141.369 22.2097 140.854 21.9446 140.145 21.7113C139.437 21.478 138.384 21.2128 136.989 20.9159C134.412 20.3857 132.479 19.6115 131.191 18.5935C129.924 17.5542 129.29 16.0802 129.29 14.1714C129.29 12.8776 129.655 11.7217 130.386 10.7036C131.116 9.6856 132.157 8.89025 133.51 8.31759C134.863 7.74494 136.441 7.45862 138.245 7.45862C140.113 7.45862 141.734 7.77676 143.109 8.41304C144.483 9.04932 145.524 9.85527 146.233 10.8309C146.963 11.7853 147.35 12.7291 147.393 13.6623C147.393 13.8532 147.328 14.0123 147.199 14.1395C147.071 14.2668 146.91 14.3304 146.716 14.3304H142.464C142.207 14.3304 141.992 14.288 141.82 14.2032C141.67 14.1183 141.53 13.9805 141.402 13.7896C141.273 13.3018 140.918 12.8882 140.339 12.5489C139.78 12.2095 139.082 12.0398 138.245 12.0398C137.279 12.0398 136.538 12.2095 136.022 12.5489C135.507 12.8882 135.249 13.3866 135.249 14.0441C135.249 14.4895 135.389 14.8607 135.668 15.1576C135.969 15.4545 136.441 15.7302 137.085 15.9848C137.751 16.2181 138.696 16.462 139.92 16.7165C141.917 17.077 143.506 17.533 144.687 18.0845C145.89 18.6147 146.77 19.3146 147.328 20.1842C147.887 21.0326 148.166 22.1036 148.166 23.3974C148.166 24.8184 147.747 26.0592 146.91 27.1196C146.094 28.1589 144.945 28.9648 143.463 29.5375C142.003 30.0889 140.328 30.3647 138.438 30.3647ZM156.935 30.0465C156.72 30.0465 156.527 29.9723 156.355 29.8238C156.205 29.6542 156.13 29.4633 156.13 29.2512V12.7715H150.396C150.182 12.7715 149.988 12.6973 149.817 12.5489C149.666 12.3792 149.591 12.1883 149.591 11.9762V8.57211C149.591 8.3388 149.666 8.14792 149.817 7.99946C149.988 7.85099 150.182 7.77676 150.396 7.77676H167.726C167.962 7.77676 168.155 7.85099 168.305 7.99946C168.456 8.14792 168.531 8.3388 168.531 8.57211V11.9762C168.531 12.2095 168.456 12.4004 168.305 12.5489C168.155 12.6973 167.962 12.7715 167.726 12.7715H161.992V29.2512C161.992 29.4633 161.917 29.6542 161.767 29.8238C161.616 29.9723 161.423 30.0465 161.187 30.0465H156.935Z" fill="#1E1D1B"/>
<path d="M24.1197 30.0166C23.9626 30.3675 23.4585 30.3675 23.3014 30.0166L13.699 8.57408C13.5681 8.28197 13.7847 7.95349 14.1081 7.95349H33.3129C33.6364 7.95349 33.8529 8.28197 33.7221 8.57408L24.1197 30.0166Z" fill="#195CDF"/>
<path d="M9.97485 8.02472C10.1334 7.67455 10.6375 7.67666 10.7931 8.02815L20.3035 29.5106C20.4331 29.8033 20.2151 30.1309 19.8917 30.1295L0.687003 30.0492C0.363608 30.0479 0.148466 29.7185 0.280534 29.4269L9.97485 8.02472Z" fill="#195CDF"/>
</svg>
